:FULLY-SPECIFIED
:FORCE-ALL-JOINTS-BE-3DOF
:DEGREES
781
root 1.60181 16.3851 18.6467 -10.2757 74.3005 -16.2405
lfemur -35.6835 10.6713 -13.0724
ltibia 50.0838 -0 0
lfoot -21.9818 19.4751 0.0372771
ltoes 15.7348 -0 0
rfemur -15.1867 -22.1234 21.2583
rtibia 51.1562 -0 0
rfoot -18.5825 -31.2517 0.068056
rtoes -25.6912 0 0
lowerback 1.15711 4.64742 -0.567123
upperback -0.815928 6.1833 -3.6923
thorax -1.13573 3.10103 -3.59312
lowerneck -5.43658 -6.49853 -0.530173
upperneck -2.14694 -8.57375 4.92594
head 0.490575 -4.21271 1.4256
lclavicle 3.91249e-14 9.25887e-15 2.72627e-30
lhumerus -56.0409 -11.694 94.927
lradius 70.7265 -0 0
lwrist 13.0422 0 0
lhand -21.7399 -4.77913 -0.0245422
lfingers 7.12502 -0 0
lthumb 4.65985 25.1439 -0.0241443
rclavicle 3.91249e-14 9.25887e-15 2.72627e-30
rhumerus -31.2762 47.9696 -113.015
rradius 79.9634 -0 0
rwrist 5.61569 0 0
rhand -24.0407 -20.1599 -0.000651834
rfingers 7.12502 -0 0
rthumb 2.43828 -50.1337 -0.0015639
782
root 1.57569 16.4213 18.7281 -7.46512 71.2398 -13.2105
lfemur -34.6157 7.81094 -11.9035
ltibia 49.5854 -0 0
lfoot -21.873 18.5612 0.0321858
ltoes 14.0572 -0 0
rfemur -15.0216 -20.9525 20.9183
rtibia 50.644 -0 0
rfoot -18.1559 -29.5863 0.0711074
rtoes -26.4002 0 0
lowerback 1.17053 4.63093 -0.264001
upperback -0.716097 6.16604 -3.56127
thorax -1.02419 3.08994 -3.62035
lowerneck -5.50525 -6.32803 -0.373223
upperneck -1.79078 -8.37625 4.63034
head 0.585908 -4.11516 1.30432
lclavicle 2.74537e-14 1.25832e-14 2.97766e-30
lhumerus -56.1416 -11.6908 95.0202
lradius 70.7058 -0 0
lwrist 13.7252 0 0
lhand -22.3846 -4.29768 -0.0257969
lfingers 7.12502 -0 0
lthumb 4.03734 25.6388 -0.0253002
rclavicle 2.74537e-14 1.25832e-14 2.97766e-30
rhumerus -31.9442 47.9278 -113.586
rradius 79.8117 -0 0
rwrist 5.33925 0 0
rhand -24.1513 -20.3121 0.000383312
rfingers 7.12502 -0 0
rthumb 2.3314 -50.2853 -0.000342115
783
root 1.55375 16.4548 18.8102 -5.49343 68.2026 -11.0639
lfemur -33.7516 5.04408 -10.8602
ltibia 49.2043 -0 0
lfoot -21.8152 17.5202 0.0209494
ltoes 12.5244 -0 0
rfemur -14.8992 -19.7944 20.6198
rtibia 50.1571 -0 0
rfoot -17.7647 -27.9164 0.056368
rtoes -26.9859 0 0
lowerback 1.15125 4.61634 0.0372852
upperback -0.630271 6.15147 -3.42699
thorax -0.909194 3.08056 -3.64117
lowerneck -5.57172 -6.15733 -0.22073
upperneck -1.44106 -8.17637 4.34078
head 0.679879 -4.01699 1.18568
lclavicle 1.5289e-14 1.50358e-14 2.63491e-30
lhumerus -56.2294 -11.6627 95.0909
lradius 70.6723 -0 0
lwrist 14.431 0 0
lhand -22.9455 -3.81431 -0.0209524
lfingers 7.12502 -0 0
lthumb 3.49569 26.1338 -0.0204613
rclavicle 1.5289e-14 1.50358e-14 2.63491e-30
rhumerus -32.6026 47.8922 -114.123
rradius 79.6264 -0 0
rwrist 5.07814 0 0
rhand -24.1975 -20.4885 0.00128269
rfingers 7.12502 -0 0
rthumb 2.28668 -50.4596 0.00084059
784
root 1.53495 16.4843 18.8943 -3.97316 65.2133 -9.45062
lfemur -33.1746 2.53061 -9.97278
ltibia 48.9725 -0 0
lfoot -21.7502 16.296 0.00792275
ltoes 11.2259 -0 0
rfemur -14.8496 -18.6744 20.3827
rtibia 49.6745 -0 0
rfoot -17.5073 -26.3425 0.0289983
rtoes -27.4055 0 0
lowerback 1.0813 4.60463 0.320553
upperback -0.569856 6.14038 -3.29532
thorax -0.793394 3.07337 -3.65169
lowerneck -5.63156 -5.99152 -0.0787674
upperneck -1.13808 -7.97874 4.07885
head 0.760659 -3.92042 1.07833
lclavicle 3.14896e-15 1.66585e-14 1.65166e-30
lhumerus -56.3037 -11.599 95.1254
lradius 70.6253 -0 0
lwrist 15.1026 0 0
lhand -23.3368 -3.35679 -0.0113674
lfingers 7.12502 -0 0
lthumb 3.1178 26.5993 -0.0110358
rclavicle 3.14896e-15 1.66585e-14 1.65166e-30
rhumerus -33.217 47.8255 -114.603
rradius 79.4101 -0 0
rwrist 4.84055 0 0
rhand -24.2089 -20.6969 0.0014157
rfingers 7.12502 -0 0
rthumb 2.27564 -50.6658 0.00124864
785
root 1.51824 16.5089 18.9817 -2.67731 62.2886 351.818
lfemur -32.9625 0.432324 -9.26479
ltibia 48.9216 0 0
lfoot -21.62 14.8327 0
ltoes 10.2513 0 0
rfemur -14.9017 -17.6181 20.2256
rtibia 49.1753 0 0
rfoot -17.4814 -24.9648 0
rtoes -27.6164 0 0
lowerback 0.942677 4.59689 0.569618
upperback -0.546254 6.13361 -3.1721
thorax -0.67945 3.06884 -3.64802
lowerneck -5.68039 -5.8357 0.0466325
upperneck -0.921863 -7.78855 3.86576
head 0.816457 -3.82773 0.990877
lclavicle -8.44835e-15 1.74931e-14 0
lhumerus -56.3639 -11.4893 95.1099
lradius 70.5643 0 0
lwrist 15.6832 0 0
lhand -23.4728 -2.9528 0
lfingers 7.12502 0 0
lthumb 2.98652 27.006 0
rclavicle -8.44835e-15 1.74931e-14 0
rhumerus -33.7516 47.6912 -115.002
rradius 79.1657 0 0
rwrist 4.63468 0 0
rhand -24.2149 -20.945 0
rfingers 7.12502 0 0
rthumb 2.26979 -770.913 0
786
root 1.50466 16.5273 19.072 -1.46784 59.4326 -7.17401
lfemur -33.17 -1.29678 -8.70105
ltibia 49.1378 -0 0
lfoot -21.4571 12.9937 -0.00166999
ltoes 9.65106 -0 0
rfemur -15.1276 -16.6249 20.1701
rtibia 48.694 -0 0
rfoot -17.7074 -23.7439 -0.0231867
rtoes -27.5836 0 0
lowerback 0.676434 4.59437 0.785715
upperback -0.576605 6.13255 -3.05391
thorax -0.552239 3.06772 -3.62298
lowerneck -5.71805 -5.69044 0.155902
upperneck -0.783181 -7.60758 3.69797
head 0.850018 -3.73939 0.922216
lclavicle -2.03859e-14 1.69831e-14 -2.00779e-30
lhumerus -56.4164 -11.3209 95.0392
lradius 70.5106 -0 0
lwrist 16.1615 0 0
lhand -23.3517 -2.62042 0.00609947
lfingers 7.12502 -0 0
lthumb 3.10347 27.3372 0.00605567
rclavicle -2.03859e-14 1.69831e-14 -2.00779e-30
rhumerus -34.2341 47.4909 -115.318
rradius 78.8895 -0 0
rwrist 4.46065 0 0
rhand -24.1892 -21.2235 -0.00173448
rfingers 7.12502 -0 0
rthumb 2.29462 -51.1912 -0.00167801
787
root 1.4955 16.5401 19.164 -0.322133 56.6389 -6.39155
lfemur -33.727 -2.80583 -8.21909
ltibia 49.6213 -0 0
lfoot -21.3238 10.7834 -0.00242515
ltoes 9.36258 -0 0
rfemur -15.5208 -15.6721 20.2009
rtibia 48.2605 -0 0
rfoot -18.1051 -22.5775 -0.039163
rtoes -27.3336 0 0
lowerback 0.278938 4.59726 0.983626
upperback -0.656464 6.1371 -2.93442
thorax -0.404356 3.06976 -3.57763
lowerneck -5.74848 -5.55143 0.254611
upperneck -0.683066 -7.43238 3.55504
head 0.872788 -3.65361 0.864283
lclavicle -3.34184e-14 1.4906e-14 -3.62168e-30
lhumerus -56.4638 -11.0989 94.9238
lradius 70.4718 -0 0
lwrist 16.5843 0 0
lhand -23.0494 -2.34109 0.0044236
lfingers 7.12502 -0 0
lthumb 3.39548 27.6134 0.0048467
rclavicle -3.34184e-14 1.4906e-14 -3.62168e-30
rhumerus -34.705 47.2589 -115.574
rradius 78.578 -0 0
rwrist 4.31121 0 0
rhand -24.0967 -21.5224 -0.00212964
rfingers 7.12502 -0 0
rthumb 2.38395 -51.4891 -0.00206088
788
root 1.49007 16.5488 19.2576 0.74023 53.9049 -5.79262
lfemur -34.5239 -4.0901 -7.80784
ltibia 50.2757 -0 0
lfoot -21.207 8.35691 -0.00274449
ltoes 9.30543 -0 0
rfemur -15.9928 -14.7515 20.2823
rtibia 47.8475 -0 0
rfoot -18.6211 -21.4716 -0.0452054
rtoes -26.9154 0 0
lowerback -0.1848 4.60469 1.16747
upperback -0.764856 6.14585 -2.81509
thorax -0.250038 3.07393 -3.52041
lowerneck -5.77347 -5.41651 0.344452
upperneck -0.616862 -7.26055 3.43265
head 0.886049 -3.56927 0.815207
lclavicle -4.68358e-14 1.18042e-14 -4.3738e-30
lhumerus -56.5007 -10.8397 94.7736
lradius 70.4268 -0 0
lwrist 16.9819 0 0
lhand -22.5961 -2.08747 -0.00153521
lfingers 7.12502 -0 0
lthumb 3.83328 27.8613 -0.000460937
rclavicle -4.68358e-14 1.18042e-14 -4.3738e-30
rhumerus -35.147 47.0078 -115.776
rradius 78.2338 -0 0
rwrist 4.18351 0 0
rhand -23.954 -21.8484 -0.00154323
rfingers 7.12502 -0 0
rthumb 2.52178 -51.8135 -0.00149497
789
root 1.48765 16.5551 19.3528 1.69388 51.2283 -5.33941
lfemur -35.4517 -5.1474 -7.46448
ltibia 51.0043 -0 0
lfoot -21.0936 5.86943 -0.00294799
ltoes 9.39918 -0 0
rfemur -16.4572 -13.8554 20.3825
rtibia 47.4275 -0 0
rfoot -19.2022 -20.4319 -0.0411628
rtoes -26.3782 0 0
lowerback -0.649775 4.61539 1.34137
upperback -0.880811 6.15732 -2.69737
thorax -0.103519 3.07928 -3.4598
lowerneck -5.79479 -5.28349 0.427099
upperneck -0.579957 -7.08962 3.32653
head 0.891076 -3.48525 0.77312
lclavicle -5.99278e-14 8.22032e-15 -4.08351e-30
lhumerus -56.5215 -10.5596 94.5984
lradius 70.3545 -0 0
lwrist 17.3844 0 0
lhand -22.0221 -1.83225 -0.00814612
lfingers 7.12502 -0 0
lthumb 4.38763 28.1072 -0.00654078
rclavicle -5.99278e-14 8.22032e-15 -4.08351e-30
rhumerus -35.5432 46.7503 -115.932
rradius 77.8596 -0 0
rwrist 4.0747 0 0
rhand -23.7776 -22.2084 -0.00041648
rfingers 7.12502 -0 0
rthumb 2.69215 -52.1713 -0.000407503
790
root 1.48757 16.5605 19.4495 2.50932 48.6068 -4.99629
lfemur -36.4021 -5.97745 -7.19228
ltibia 51.7103 -0 0
lfoot -20.9704 3.4761 -0.00290285
ltoes 9.56341 -0 0
rfemur -16.8295 -12.9768 20.4722
rtibia 46.9732 -0 0
rfoot -19.7951 -19.4646 -0.0292088
rtoes -25.7711 0 0
lowerback -1.05099 4.62774 1.50951
upperback -0.983368 6.16991 -2.5827
thorax 0.0209613 3.0849 -3.40426
lowerneck -5.8142 -5.15017 0.504219
upperneck -0.567785 -6.91706 3.23247
head 0.889134 -3.40044 0.73616
lclavicle -7.19841e-14 4.69666e-15 -2.90553e-30
lhumerus -56.5202 -10.2749 94.4081
lradius 70.2337 -0 0
lwrist 17.822 0 0
lhand -21.3576 -1.54799 -0.0119968
lfingers 7.12502 -0 0
lthumb 5.02933 28.3777 -0.0102487
rclavicle -7.19841e-14 4.69666e-15 -2.90553e-30
rhumerus -35.8775 46.499 -116.049
rradius 77.4579 -0 0
rwrist 3.98192 0 0
rhand -23.5841 -22.6089 0.000706618
rfingers 7.12502 -0 0
rthumb 2.87905 -52.5694 0.000676039
791
root 1.48913 16.5664 19.5475 3.15382 46.0378 -4.72863
lfemur -37.2669 -6.58128 -6.99837
ltibia 52.2972 -0 0
lfoot -20.8244 1.33208 -0.00208563
ltoes 9.71771 -0 0
rfemur -17.0264 -12.1092 20.5251
rtibia 46.457 -0 0
rfoot -20.3468 -18.5755 -0.0135368
rtoes -25.1433 0 0
lowerback -1.32346 4.63979 1.67611
upperback -1.05157 6.18194 -2.47253
thorax 0.10916 3.08999 -3.36228
lowerneck -5.83345 -5.01435 0.577464
upperneck -0.575815 -6.7403 3.14627
head 0.881482 -3.3137 0.702469
lclavicle -8.22945e-14 1.77574e-15 -1.31078e-30
lhumerus -56.4911 -10.0018 94.2128
lradius 70.0432 -0 0
lwrist 18.3249 0 0
lhand -20.6326 -1.20719 -0.0101073
lfingers 7.12502 -0 0
lthumb 5.72918 28.6995 -0.00883128
rclavicle -8.22945e-14 1.77574e-15 -1.31078e-30
rhumerus -36.1336 46.2663 -116.136
rradius 77.0315 -0 0
rwrist 3.90233 0 0
rhand -23.3899 -23.0568 0.0011405
rfingers 7.12502 -0 0
rthumb 3.06654 -53.0146 0.00109542
792
root 1.49163 16.5745 19.6468 3.59197 43.5186 355.498
lfemur -37.9382 -6.96058 -6.89152
ltibia 52.6684 0 0
lfoot -20.6426 -0.407483 0
ltoes 9.78164 0 0
rfemur -16.9658 -11.2463 20.5172
rtibia 45.8516 0 0
rfoot -20.8043 -17.7704 0
rtoes -24.5438 0 0
lowerback -1.40219 4.64929 1.84543
upperback -1.06446 6.19167 -2.36826
thorax 0.146831 3.09372 -3.34234
lowerneck -5.85426 -4.87383 0.648477
upperneck -0.59955 -6.55675 3.06376
head 0.869373 -3.22391 0.670191
lclavicle -9.01488e-14 0 0
lhumerus -56.4278 -9.75635 94.0222
lradius 69.7621 0 0
lwrist 18.9234 0 0
lhand -19.8775 -0.782223 0
lfingers 7.12502 0 0
lthumb 6.45805 29.0993 0
rclavicle -9.01488e-14 0 0
rhumerus -36.2956 46.0647 -116.201
rradius 76.5829 0 0
rwrist 3.83307 0 0
rhand -23.2117 -23.5588 0
rfingers 7.12502 0 0
rthumb 3.23866 -773.514 0
